<svg id="Layer_1" data-name="Layer 1" xmlns="http://www.w3.org/2000/svg" viewBox="0 0 385.84 501"><defs><style>.cls-1,.cls-6{fill:#ff8009;}.cls-2{fill:#37474f;}.cls-3,.cls-5{fill:#0187fe;}.cls-4{fill:#63b608;}.cls-4,.cls-5,.cls-6{fill-rule:evenodd;}</style></defs><g id="Camada_1"><g id="_2476513301072" data-name=" 2476513301072"><polygon class="cls-1" points="341.14 410.34 341.14 413.71 364.76 413.71 364.76 427.2 327.65 427.2 327.65 379.97 364.76 379.97 364.76 393.47 341.14 393.47 341.14 396.83 351.25 396.83 351.25 410.34 341.14 410.34"/><polygon class="cls-1" points="311.47 427.2 297.98 427.2 297.98 393.47 284.5 393.47 284.5 379.97 324.97 379.97 324.97 393.47 311.47 393.47 311.47 427.2"/><path class="cls-1" d="M265,400.21c2.26,0,3.38-1.12,3.38-3.38s-1.12-3.36-3.38-3.36H254.91v6.74Zm-10.12,13.5V427.2H241.43V380H265c11.25,0,16.87,5.64,16.87,16.86,0,8.94-3.54,14.32-10.67,16.17l10.67,14.2H265Z" transform="translate(-0.08)"/><polygon class="cls-1" points="215.06 410.34 215.06 413.71 238.67 413.71 238.67 427.2 201.57 427.2 201.57 379.97 238.67 379.97 238.67 393.47 215.06 393.47 215.06 396.83 225.17 396.83 225.17 410.34 215.06 410.34"/><path class="cls-1" d="M172,410.34q-16.84,0-16.85-15.32,0-15,16.85-15h20.24v13.5H172c-2.25,0-3.38.51-3.38,1.55,0,1.22,1.13,1.81,3.38,1.81h10.13q16.86,0,16.86,15.06,0,15.32-16.86,15.31H161.87V413.71h20.24c2.26,0,3.37-.61,3.37-1.82,0-1-1.11-1.55-3.37-1.55Z" transform="translate(-0.08)"/><polygon class="cls-1" points="122 403.58 122 427.2 108.53 427.2 108.53 379.97 122 379.97 138.87 403.58 138.87 379.97 152.37 379.97 152.37 427.2 138.87 427.2 122 403.58"/><path class="cls-1" d="M82.3,413.71a10.14,10.14,0,1,0-7.14-3A9.75,9.75,0,0,0,82.3,413.71Zm0,13.49A23.62,23.62,0,1,1,99,386.89,23.62,23.62,0,0,1,82.3,427.2Z" transform="translate(-0.08)"/><path class="cls-1" d="M56,412.9a23.33,23.33,0,0,1-5.07,7.37,22.67,22.67,0,0,1-16.69,6.93,22.64,22.64,0,0,1-16.69-6.93,23.61,23.61,0,0,1,0-33.38A22.75,22.75,0,0,1,34.23,380a22.78,22.78,0,0,1,16.69,6.92,23.67,23.67,0,0,1,5.1,7.36L43.57,399.6a10.15,10.15,0,0,0-2.2-3.16,9.69,9.69,0,0,0-7.14-3,10.12,10.12,0,1,0,7.14,17.27,9.7,9.7,0,0,0,2.17-3.17Z" transform="translate(-0.08)"/></g><g id="_2476513322720" data-name=" 2476513322720"><path class="cls-2" d="M362,479.91,356.41,463l-5.61,16.87Zm-16.86,16.87L343.74,501H326.9L348,442h16.88l21.08,59H369.05l-1.4-4.22Z" transform="translate(-0.08)"/><path class="cls-2" d="M264.69,471.47V442h16.86v29.51q0,12.66,8.43,12.65t8.43-12.65V442h16.87v29.51Q315.28,501,290,501t-25.29-29.53Z" transform="translate(-0.08)"/><path class="cls-2" d="M232,467.26c2.82,0,4.21-1.39,4.21-4.22s-1.39-4.21-4.21-4.21H219.34v8.43Zm-12.65,16.86V501H202.49V442H232q21.09,0,21.09,21.08,0,16.75-13.33,20.21L253.08,501H232Z" transform="translate(-0.08)"/><path class="cls-3" d="M176,479.91,170.34,463l-5.59,16.87Zm-16.88,16.87L157.69,501H140.84l21.07-59h16.86l21.1,59H183l-1.39-4.22Z" transform="translate(-0.08)"/><polygon class="cls-3" points="134.65 501 117.78 501 117.78 458.83 100.92 458.83 100.92 441.96 151.51 441.96 151.51 458.83 134.65 458.83 134.65 501"/><path class="cls-3" d="M70.94,479.91q-21.07,0-21.06-19.14Q49.88,442,70.94,442h25.3v16.87H70.94q-4.22,0-4.22,1.94c0,1.52,1.41,2.27,4.22,2.27H83.59q21.1,0,21.08,18.81,0,19.17-21.08,19.15H58.29V484.12h25.3c2.82,0,4.21-.75,4.21-2.27,0-1.29-1.39-1.94-4.21-1.94Z" transform="translate(-0.08)"/><polygon class="cls-3" points="16.85 479.91 16.85 484.12 46.38 484.12 46.38 501 0 501 0 441.96 46.38 441.96 46.38 458.83 16.85 458.83 16.85 463.04 29.5 463.04 29.5 479.91 16.85 479.91"/></g><path class="cls-4" d="M173,269.79a94.46,94.46,0,0,1,0-186.6V0a177.11,177.11,0,0,0,0,353Z" transform="translate(-0.08)"/><path class="cls-5" d="M202.49,83.19a94.46,94.46,0,0,1,0,186.6v95.43H358.87L302.45,311.4A177.09,177.09,0,0,0,202.49,0Z" transform="translate(-0.08)"/><path class="cls-6" d="M161.21,203h0v-50.1H211.3l45.78,45.78A73.78,73.78,0,1,0,207,248.8L161.21,203Z" transform="translate(-0.08)"/></g></svg>